<?xml version="1.0" encoding="UTF-8" standalone="no"?>
<svg width="841px" height="196px" viewBox="0 0 841 196" version="1.1" xmlns="http://www.w3.org/2000/svg" xmlns:xlink="http://www.w3.org/1999/xlink" xmlns:sketch="http://www.bohemiancoding.com/sketch/ns">
    <!-- Generator: Sketch 3.3.2 (12043) - http://www.bohemiancoding.com/sketch -->
    <title>Logo</title>
    <desc>Created with Sketch.</desc>
    <defs></defs>
    <g id="Page-2" stroke="none" stroke-width="1" fill="none" fill-rule="evenodd" sketch:type="MSPage">
        <g id="Logo" sketch:type="MSArtboardGroup">
            <g sketch:type="MSLayerGroup" transform="translate(468.000044, 26.300003)">
                <path d="M15.3720015,115.660011 C13.7616013,115.660011 12.6880012,114.604717 12.6880012,113.021775 L12.6880012,28.5982379 C12.6880012,27.0152966 13.7616013,25.9600024 15.3720015,25.9600024 L79.7880076,25.9600024 C81.3984077,25.9600024 82.4720078,27.0152966 82.4720078,28.5982379 L82.4720078,113.021775 C82.4720078,114.604717 81.3984077,115.660011 79.7880076,115.660011 L15.3720015,115.660011 Z" id="Path-Copy" fill-opacity="0.4" fill="#FFFFFF" sketch:type="MSShapeGroup"></path>
                <path d="M53.5275051,12.7000011 C53.5275051,15.9175014 50.8511298,18.5500017 47.5800045,18.5500017 C44.3088792,18.5500017 41.6325039,15.9175014 41.6325039,12.7000011 L11.8950011,12.7000011 C5.35275051,12.7000011 0,17.9650016 0,24.4000022 L0,118.000011 C0,124.435012 5.35275051,129.700012 11.8950011,129.700012 L83.2650079,129.700012 C87.0419985,129.700012 103.799977,154.900007 110.999977,147.700006 C118.199977,140.500006 95.160009,120.719939 95.160009,118.000011 L95.160009,24.4000022 C95.160009,17.9650016 89.8072585,12.7000011 83.2650079,12.7000011 L53.5275051,12.7000011 Z M15.3720015,115.660011 C13.7616013,115.660011 12.6880012,114.604717 12.6880012,113.021775 L12.6880012,28.5982379 C12.6880012,27.0152966 13.7616013,25.9600024 15.3720015,25.9600024 L79.7880076,25.9600024 C81.3984077,25.9600024 82.4720078,27.0152966 82.4720078,28.5982379 L82.4720078,113.021775 C82.4720078,114.604717 81.3984077,115.660011 79.7880076,115.660011 L15.3720015,115.660011 Z" id="Shape" fill="#FFFFFF" sketch:type="MSShapeGroup"></path>
                <path d="M35.5333367,12.7000011 C35.5333367,6.2650005 40.9543372,1 47.5800045,1 C54.2056718,1 59.6266723,6.2650005 59.6266723,12.7000011 L74.6850071,12.7000011 L74.6850071,24.4000022 C74.6850071,27.6175025 71.9745068,30.2500028 68.6616732,30.2500028 L26.4983358,30.2500028 C23.1855022,30.2500028 20.4750019,27.6175025 20.4750019,24.4000022 L20.4750019,12.7000011 L35.5333367,12.7000011 Z M47.5800045,18.5500017 C44.2671709,18.5500017 41.5566706,15.9175014 41.5566706,12.7000011 C41.5566706,9.4825008 44.2671709,6.85000055 47.5800045,6.85000055 C50.8928382,6.85000055 53.6033384,9.4825008 53.6033384,12.7000011 C53.6033384,15.9175014 50.8928382,18.5500017 47.5800045,18.5500017 Z" id="Shape" fill="#BEBEBE" sketch:type="MSShapeGroup"></path>
                <path d="M67.4507207,55.4050052 L40.3542895,81.7300076 L27.7092883,69.1525065 L20.1825019,76.4650072 L40.655361,96.062509 L74.9775071,62.7175058 L67.4507207,55.4050052 Z" id="Shape" fill="#619DD1" sketch:type="MSShapeGroup"></path>
            </g>
            <path d="M585.000055,111.650883 C585.000055,140.973829 601.18767,156.000015 629.333702,156.000015 C658.208905,156.000015 673.813182,140.536173 673.813182,111.650883 L673.813182,44.981301 C673.813182,40.8965126 670.896495,39.0000037 666.813133,39.0000037 C662.72977,39.0000037 659.813083,40.8965126 659.813083,44.981301 L659.813083,111.067342 C659.813083,132.512481 649.313009,143.307994 629.187867,143.307994 C609.500228,143.307994 599.000154,132.658367 599.000154,111.213227 L599.000154,44.981301 C599.000154,40.8965126 595.937633,39.0000037 592.145939,39.0000037 C587.916743,39.0000037 585.000055,40.8965126 585.000055,44.981301 L585.000055,111.650883 Z M698.313355,148.413979 C698.313355,152.352882 701.230042,154.395276 705.16757,154.395276 C709.250932,154.395276 712.313454,152.352882 712.313454,148.413979 L712.313454,44.981301 C712.313454,40.8965126 709.250932,39.0000037 705.16757,39.0000037 C701.230042,39.0000037 698.313355,40.8965126 698.313355,44.981301 L698.313355,148.413979 Z M792.230684,52.5673367 C794.4182,52.5673367 798.209893,52.2755661 801.418249,51.8379101 C798.79323,54.4638456 796.605715,56.3603545 795.001537,58.4027487 L735.792786,134.554876 C732.876099,138.202008 730.980252,140.827944 730.980252,145.496273 C730.980252,150.164603 734.042774,153.519965 738.709473,153.519965 L812.793329,153.519965 C816.585023,153.519965 818.626704,150.310488 818.626704,146.955126 C818.626704,143.453879 816.730857,140.827944 813.084998,140.827944 L755.626259,140.827944 C753.147075,140.827944 749.355382,141.119714 746.29286,141.411485 C748.917879,138.785549 751.105394,137.034926 752.709572,134.992531 L811.48082,58.9862899 C814.689176,54.9015015 816.439188,52.4214514 816.439188,47.7531217 C816.439188,43.0847921 813.81417,39.8753155 808.855801,39.8753155 L741.771995,39.8753155 C738.126136,39.8753155 736.084455,42.7930215 736.084455,46.2942687 C736.084455,49.7955159 738.126136,52.5673367 741.771995,52.5673367 L792.230684,52.5673367 Z" id="UIZ" fill="#FFFFFF" sketch:type="MSShapeGroup"></path>
            <path d="M65.3996684,39.0000037 C35.3755214,39.0000037 15.6000015,62.2555615 15.6000015,97.3555648 C15.6000015,133.322235 35.3755214,156.000015 66.4100964,156.000015 C92.1038376,156.000015 104.228974,139.822235 109.281114,125.522234 C109.569808,124.655567 109.714155,123.933345 109.714155,123.066678 C109.714155,120.033345 107.115911,117.866678 104.662014,117.2889 C103.651586,117.000011 102.641158,116.855567 101.775077,116.855567 C99.0324869,116.855567 96.4342434,118.155567 95.2794685,121.333345 C91.5264501,132.888901 83.2986791,143.288902 65.9770558,143.288902 C44.3250267,143.288902 30.0346875,125.37779 30.0346875,97.5000092 C30.0346875,69.044451 44.3250267,51.5666716 65.9770558,51.5666716 C82.4325979,51.5666716 89.6499409,60.0888946 93.9803467,70.4888956 C95.2794685,73.2333403 97.5890183,74.2444515 100.042915,74.2444515 C101.19769,74.2444515 102.352465,74.100007 103.50724,73.6666736 C105.672442,72.9444514 107.981992,70.9222289 107.981992,67.8888953 C107.981992,67.0222286 107.837645,66.0111174 107.404605,65.0000062 C102.208118,52.2888938 90.8047158,39.0000037 65.3996684,39.0000037 L65.3996684,39.0000037 Z M159.513821,87.8222305 C143.346973,84.6444525 138.294833,79.3000075 138.294833,68.9000065 C138.294833,59.3666723 145.945217,50.9888937 162.689452,50.9888937 C178.711954,50.9888937 184.774522,59.0777834 187.084072,67.3111175 C188.238847,70.3444511 190.83709,71.5000068 193.435334,71.5000068 C194.301415,71.5000068 195.167496,71.3555623 195.88923,71.2111179 C198.776167,70.63334 201.230064,68.4666732 201.230064,65.4333395 C201.230064,64.7111172 201.085717,63.988895 200.797024,63.2666727 C197.621393,52.8666717 188.671887,39.0000037 162.689452,39.0000037 C135.552243,39.0000037 124.293187,53.7333384 124.293187,68.9000065 C124.293187,87.8222305 134.108774,96.0555647 155.760803,100.533343 L167.308552,102.988899 C184.341481,106.455566 190.83709,111.655566 190.83709,123.500012 C190.83709,135.922235 180.588463,143.86668 164.132921,143.86668 C143.058279,143.86668 138.294833,133.033346 135.696589,123.355567 C134.830508,120.322234 132.087918,119.022234 129.345328,119.022234 C128.479246,119.022234 127.757512,119.166678 126.891431,119.311122 C123.860147,120.033345 121.40625,122.200012 121.40625,125.37779 C121.40625,125.955567 121.550597,126.533345 121.694944,127.255568 C125.159269,138.955569 131.943571,156.000015 164.854655,156.000015 C190.692743,156.000015 204.983082,141.988902 204.983082,123.355567 C204.983082,102.411121 192.713599,94.7555645 170.195489,89.9888974 L159.513821,87.8222305 Z M222.882093,99.5222317 L222.882093,100.677787 C222.882093,104.433343 225.33599,106.311121 228.800314,106.60001 C229.377702,106.744455 229.810742,106.744455 230.243783,106.744455 C233.419414,106.744455 235.151576,105.444454 237.028086,102.555565 C241.502838,95.6222313 248.575834,91.5777865 258.680115,91.5777865 C273.403494,91.5777865 282.930387,101.40001 282.930387,117.144456 C282.930387,133.033346 272.826107,143.722236 257.380993,143.722236 C246.121938,143.722236 238.18286,138.377791 234.285495,130.288901 C232.986373,127.688901 230.965517,126.67779 228.800314,126.67779 C227.501193,126.67779 226.202071,126.966679 224.902949,127.688901 C222.737746,128.844457 221.149931,131.011124 221.149931,133.611124 C221.149931,134.622235 221.438625,135.777791 222.016012,136.933346 C228.222927,148.922236 240.203716,156.000015 257.95838,156.000015 C281.631265,156.000015 296.932033,139.822235 296.932033,116.566678 C296.932033,94.3222312 282.497347,79.8777853 260.556624,79.8777853 C249.874956,79.8777853 241.935879,83.0555634 235.584617,89.844453 C236.162004,87.6777861 236.595045,85.0777858 236.883739,83.2000079 L239.626329,56.3333387 C239.770676,54.6000052 240.636757,53.7333384 242.513266,53.7333384 L287.260793,53.7333384 C290.436424,53.7333384 292.45728,50.9888937 292.45728,47.5222267 C292.45728,44.0555597 290.580771,41.311115 287.260793,41.311115 L237.74982,41.311115 C231.542905,41.311115 228.367274,44.6333376 227.64554,50.7000048 L222.882093,99.5222317 Z M353.227308,39.1444482 C326.378792,39.1444482 311.799759,59.3666723 311.799759,97.0666759 C311.799759,135.777791 325.801405,155.85557 353.082961,155.85557 C379.642784,155.85557 394.221817,135.633346 394.221817,97.3555648 C394.221817,58.3555611 379.498437,39.1444482 353.227308,39.1444482 L353.227308,39.1444482 Z M353.227308,51.5666716 C371.55936,51.5666716 380.364518,67.3111175 380.364518,97.2111203 C380.364518,127.688901 371.415013,143.433347 353.082961,143.433347 C334.75091,143.433347 325.657058,127.688901 325.657058,97.2111203 C325.657058,66.8777841 335.039604,51.5666716 353.227308,51.5666716 L353.227308,51.5666716 Z" id="CS50" fill="#FFFFFF" sketch:type="MSShapeGroup"></path>
        </g>
    </g>
</svg>