<?xml version="1.0" encoding="UTF-8" standalone="no"?>
<svg width="215px" height="50px" viewBox="0 0 215 50" version="1.1" xmlns="http://www.w3.org/2000/svg" xmlns:xlink="http://www.w3.org/1999/xlink" xmlns:sketch="http://www.bohemiancoding.com/sketch/ns">
    <!-- Generator: Sketch 3.3.2 (12043) - http://www.bohemiancoding.com/sketch -->
    <title>Menu_Logo</title>
    <desc>Created with Sketch.</desc>
    <defs></defs>
    <g id="Page-2" stroke="none" stroke-width="1" fill="none" fill-rule="evenodd" sketch:type="MSPage">
        <g id="Menu_Logo" sketch:type="MSArtboardGroup">
            <g id="Logo" sketch:type="MSLayerGroup" transform="translate(118.387766, 6.709184)">
                <path d="M14.6549758,3.2397962 C14.6549758,4.0605871 13.972227,4.73214328 13.1377563,4.73214328 C12.3032855,4.73214328 11.6205367,4.0605871 11.6205367,3.2397962 L4.03443906,3.2397962 C2.36549758,3.2397962 1,4.58290857 1,6.22449036 L1,30.1020436 C1,31.7436254 2.36549758,33.0867378 4.03443906,33.0867378 L22.2410734,33.0867378 C23.2045915,33.0867378 27.4795859,39.5153078 29.3163206,37.6785731 C31.1530554,35.8418383 25.2755125,30.7959028 25.2755125,30.1020436 L25.2755125,6.22449036 C25.2755125,4.58290857 23.9100149,3.2397962 22.2410734,3.2397962 L14.6549758,3.2397962 Z M4.92142894,29.5051048 C4.51061258,29.5051048 4.236735,29.2358971 4.236735,28.8320855 L4.236735,7.29546885 C4.236735,6.89165729 4.51061258,6.62244958 4.92142894,6.62244958 L21.3540836,6.62244958 C21.7648999,6.62244958 22.0387775,6.89165729 22.0387775,7.29546885 L22.0387775,28.8320855 C22.0387775,29.2358971 21.7648999,29.5051048 21.3540836,29.5051048 L4.92142894,29.5051048 Z" id="Shape" fill="#555F66" sketch:type="MSShapeGroup"></path>
                <path d="M10.0646267,3.2397962 C10.0646267,1.59821441 11.447535,0.255102041 13.1377563,0.255102041 C14.8279775,0.255102041 16.2108858,1.59821441 16.2108858,3.2397962 L20.0522977,3.2397962 L20.0522977,6.22449036 C20.0522977,7.04528126 19.3608436,7.71683744 18.515733,7.71683744 L7.75977955,7.71683744 C6.91466893,7.71683744 6.22321478,7.04528126 6.22321478,6.22449036 L6.22321478,3.2397962 L10.0646267,3.2397962 Z M13.1377563,4.73214328 C12.2926456,4.73214328 11.6011915,4.0605871 11.6011915,3.2397962 C11.6011915,2.41900531 12.2926456,1.74744912 13.1377563,1.74744912 C13.9828669,1.74744912 14.674321,2.41900531 14.674321,3.2397962 C14.674321,4.0605871 13.9828669,4.73214328 13.1377563,4.73214328 Z" id="Shape" fill="#BEBEBE" sketch:type="MSShapeGroup"></path>
                <path d="M18.2068165,14.1339299 L11.2944616,20.8494917 L8.06869601,17.6409455 L6.14859743,19.5063794 L11.3712656,24.5057421 L20.1269151,15.9993637 L18.2068165,14.1339299 Z" id="Shape" fill="#619DD1" sketch:type="MSShapeGroup"></path>
            </g>
            <path d="M149.234708,28.4823682 C149.234708,35.9627114 153.364201,39.7959221 160.544312,39.7959221 C167.910435,39.7959221 171.891118,35.8510645 171.891118,28.4823682 L171.891118,11.4748217 C171.891118,10.4327838 171.147065,9.94898053 170.105391,9.94898053 C169.063717,9.94898053 168.319664,10.4327838 168.319664,11.4748217 L168.319664,28.3335057 C168.319664,33.8042044 165.641074,36.5581616 160.507109,36.5581616 C155.484752,36.5581616 152.806162,33.8414201 152.806162,28.3707213 L152.806162,11.4748217 C152.806162,10.4327838 152.024906,9.94898053 151.057638,9.94898053 C149.978761,9.94898053 149.234708,10.4327838 149.234708,11.4748217 L149.234708,28.4823682 Z M178.141162,37.860709 C178.141162,38.8655312 178.885215,39.3865501 179.889686,39.3865501 C180.93136,39.3865501 181.712616,38.8655312 181.712616,37.860709 L181.712616,11.4748217 C181.712616,10.4327838 180.93136,9.94898053 179.889686,9.94898053 C178.885215,9.94898053 178.141162,10.4327838 178.141162,11.4748217 L178.141162,37.860709 Z M202.099664,13.4100349 C202.657704,13.4100349 203.624973,13.3356036 204.443431,13.2239567 C203.773783,13.8938382 203.215744,14.3776414 202.806515,14.8986604 L187.702241,34.3252234 C186.958188,35.2556143 186.474554,35.9254958 186.474554,37.1163962 C186.474554,38.3072966 187.25581,39.1632563 188.446294,39.1632563 L207.345237,39.1632563 C208.312506,39.1632563 208.833343,38.3445123 208.833343,37.4885526 C208.833343,36.5953773 208.349708,35.9254958 207.419642,35.9254958 L192.761801,35.9254958 C192.129356,35.9254958 191.162087,35.9999271 190.380832,36.0743583 C191.050479,35.4044769 191.608519,34.9578892 192.017748,34.4368703 L207.010413,15.0475229 C207.828871,14.0054851 208.275303,13.3728192 208.275303,12.1819188 C208.275303,10.9910184 207.605656,10.1722744 206.340766,10.1722744 L189.22755,10.1722744 C188.297484,10.1722744 187.776647,10.9165871 187.776647,11.8097624 C187.776647,12.7029377 188.297484,13.4100349 189.22755,13.4100349 L202.099664,13.4100349 Z" id="UIZ" fill="#555F66" sketch:type="MSShapeGroup"></path>
            <path d="M16.6835889,9.94898053 C9.0243677,9.94898053 3.97959221,15.8815208 3.97959221,24.8356033 C3.97959221,34.0107742 9.0243677,39.7959221 16.9413511,39.7959221 C23.4958769,39.7959221 26.5890239,35.6689376 27.8778352,32.0209781 C27.9514816,31.7998896 27.9883047,31.6156493 27.9883047,31.3945608 C27.9883047,30.6207512 27.3254875,30.0680301 26.6994935,29.9206378 C26.4417312,29.8469416 26.183969,29.8100935 25.9630299,29.8100935 C25.2633895,29.8100935 24.6005723,30.1417262 24.3059869,30.9523839 C23.3485842,33.90023 21.249663,36.5532914 16.8308816,36.5532914 C11.3074048,36.5532914 7.66191008,31.98413 7.66191008,24.8724513 C7.66191008,17.6133804 11.3074048,13.1547632 16.8308816,13.1547632 C21.028724,13.1547632 22.8698829,15.3287996 23.9745783,17.9818611 C24.3059869,18.6819746 24.8951577,18.9399111 25.5211518,18.9399111 C25.8157372,18.9399111 26.1103226,18.903063 26.404908,18.7925188 C26.9572557,18.6082784 27.5464266,18.0924053 27.5464266,17.3185957 C27.5464266,17.0975073 27.5096034,16.8395708 27.3991339,16.5816342 C26.0734994,13.3390035 23.1644683,9.94898053 16.6835889,9.94898053 L16.6835889,9.94898053 Z M40.6923014,22.4036302 C36.5681054,21.5929726 35.2792941,20.2295938 35.2792941,17.5765323 C35.2792941,15.1445593 37.2309226,13.0073708 41.5024113,13.0073708 C45.5897842,13.0073708 47.1363577,15.0708631 47.7255285,17.1712034 C48.0201139,17.945013 48.6829312,18.2397976 49.3457484,18.2397976 C49.5666875,18.2397976 49.7876265,18.2029496 49.9717424,18.1661015 C50.708206,18.0187092 51.3342,17.465988 51.3342,16.6921785 C51.3342,16.5079381 51.2973769,16.3236977 51.2237305,16.1394573 C50.4136206,13.4863958 48.1305835,9.94898053 41.5024113,9.94898053 C34.5796537,9.94898053 31.7074458,13.7074843 31.7074458,17.5765323 C31.7074458,22.4036302 34.2114219,24.5039706 39.7348987,25.6462609 L42.680753,26.2726782 C47.0258881,27.1570321 48.6829312,28.4835628 48.6829312,31.505105 C48.6829312,34.6740396 46.0684855,36.7006837 41.8706431,36.7006837 C36.494459,36.7006837 35.2792941,33.937078 34.6164769,31.468257 C34.3955378,30.6944474 33.6958974,30.3628147 32.996257,30.3628147 C32.775318,30.3628147 32.5912021,30.3996627 32.370263,30.4365108 C31.5969762,30.6207512 30.9709822,31.1734723 30.9709822,31.98413 C30.9709822,32.1315223 31.0078054,32.2789146 31.0446286,32.463155 C31.9283849,35.4478492 33.6590743,39.7959221 42.054759,39.7959221 C48.646108,39.7959221 52.2916027,36.2216588 52.2916027,31.468257 C52.2916027,26.1252859 49.1616325,24.1723379 43.4172166,22.9563514 L40.6923014,22.4036302 Z M56.8576768,25.3883244 L56.8576768,25.683109 C56.8576768,26.641159 57.4836709,27.120184 58.3674272,27.1938801 C58.5147199,27.2307282 58.6251894,27.2307282 58.7356589,27.2307282 C59.5457689,27.2307282 59.987647,26.8990955 60.4663483,26.162134 C61.6078669,24.3934263 63.4122026,23.3616802 65.9898252,23.3616802 C69.7457894,23.3616802 72.1761192,25.8673494 72.1761192,29.8837897 C72.1761192,33.937078 69.5984967,36.6638357 65.6584165,36.6638357 C62.7862086,36.6638357 60.7609338,35.3004569 59.766708,33.2369646 C59.4352993,32.5736992 58.9197748,32.3157627 58.3674272,32.3157627 C58.0360186,32.3157627 57.7046099,32.3894589 57.3732013,32.5736992 C56.8208537,32.8684838 56.4157987,33.421205 56.4157987,34.0844703 C56.4157987,34.3424069 56.489445,34.6371915 56.6367378,34.9319761 C58.2201344,37.9903664 61.2764583,39.7959221 65.8057093,39.7959221 C71.8447106,39.7959221 75.7479675,35.6689376 75.7479675,29.7363974 C75.7479675,24.0617937 72.0656496,20.3769861 66.4685265,20.3769861 C63.7436113,20.3769861 61.7183364,21.1876437 60.0981166,22.9195033 C60.2454093,22.3667822 60.3558788,21.7035168 60.4295252,21.2244918 L61.1291656,14.3707497 C61.1659887,13.9285727 61.3869278,13.7074843 61.8656291,13.7074843 L73.2808145,13.7074843 C74.0909245,13.7074843 74.606449,13.0073708 74.606449,12.123017 C74.606449,11.2386632 74.1277476,10.5385498 73.2808145,10.5385498 L60.6504642,10.5385498 C59.0670676,10.5385498 58.2569576,11.3860555 58.0728417,12.9336747 L56.8576768,25.3883244 Z M90.1090072,9.98582861 C83.259896,9.98582861 79.5407549,15.1445593 79.5407549,24.7619071 C79.5407549,34.6371915 83.1126033,39.7590741 90.072184,39.7590741 C96.8476489,39.7590741 100.56679,34.6003434 100.56679,24.8356033 C100.56679,14.8866227 96.8108257,9.98582861 90.1090072,9.98582861 L90.1090072,9.98582861 Z M90.1090072,13.1547632 C94.7855509,13.1547632 97.0317648,17.1712034 97.0317648,24.7987552 C97.0317648,32.5736992 94.7487277,36.5901395 90.072184,36.5901395 C85.3956403,36.5901395 83.0757801,32.5736992 83.0757801,24.7987552 C83.0757801,17.0606592 85.4692867,13.1547632 90.1090072,13.1547632 L90.1090072,13.1547632 Z" id="CS50" fill="#555F66" sketch:type="MSShapeGroup"></path>
        </g>
    </g>
</svg>